<?xml version="1.0" standalone="no"?>
<!DOCTYPE svg PUBLIC "-//W3C//DTD SVG 20010904//EN"
 "http://www.w3.org/TR/2001/REC-SVG-20010904/DTD/svg10.dtd">
<svg version="1.0" xmlns="http://www.w3.org/2000/svg"
 width="120.000000pt" height="120.000000pt" viewBox="0 0 120.000000 120.000000"
 preserveAspectRatio="xMidYMid meet">
<metadata>
Created by potrace 1.10, written by Peter Selinger 2001-2011
</metadata>
<g transform="translate(0.000000,120.000000) scale(0.100000,-0.100000)"
fill="#f45905" stroke="none">
<path d="M141 1175 c-86 -27 -132 -105 -130 -224 0 -67 13 -45 24 41 9 69 40
126 83 151 20 12 62 22 112 26 43 4 82 10 86 14 13 12 -129 6 -175 -8z"/>
<path d="M894 1181 c3 -4 39 -10 80 -13 122 -8 179 -58 191 -166 3 -31 9 -75
14 -97 8 -37 9 -34 10 31 2 136 -40 211 -134 240 -52 15 -170 19 -161 5z"/>
<path d="M518 1006 c-84 -23 -165 -98 -198 -184 -67 -178 49 -378 237 -408 37
-6 43 -4 59 20 13 20 14 30 5 39 -15 15 -14 34 2 34 6 0 23 3 37 8 24 7 25 7
7 -12 -20 -23 -14 -48 15 -64 17 -9 25 -7 46 14 l25 25 -28 28 -28 27 31 26
c51 43 80 139 50 169 -7 7 -40 12 -78 12 -53 0 -71 -4 -88 -20 -23 -22 -26
-29 -16 -54 4 -11 19 -16 45 -16 21 0 39 -4 39 -9 0 -19 -45 -41 -84 -41 -31
0 -45 7 -72 36 -30 31 -34 42 -32 82 3 99 107 147 188 87 19 -14 37 -25 40
-25 15 0 51 43 46 56 -3 9 1 14 13 14 28 0 57 38 45 57 -28 44 -75 41 -82 -6
-4 -23 -17 -28 -27 -10 -4 5 0 18 9 28 20 22 20 45 0 65 -22 23 -39 20 -59
-10 -13 -20 -14 -28 -4 -40 10 -12 6 -14 -25 -14 -41 0 -42 2 -20 24 13 14 13
20 2 43 -15 33 -36 37 -100 19z m82 -31 c0 -19 -5 -25 -22 -25 -38 0 -122 -45
-152 -81 -41 -48 -56 -90 -56 -154 0 -64 20 -118 58 -159 31 -32 116 -76 150
-76 16 0 22 -6 22 -24 0 -22 -2 -23 -45 -15 -168 31 -268 191 -221 353 28 96
117 175 219 196 23 4 43 8 45 9 1 1 2 -10 2 -24z m120 -21 c0 -20 -30 -30 -40
-13 -11 17 7 40 26 32 8 -3 14 -12 14 -19z m77 -50 c8 -21 -13 -42 -28 -27
-13 13 -5 43 11 43 6 0 13 -7 17 -16z m-111 -25 c58 -27 71 -44 50 -64 -14
-14 -17 -14 -36 5 -44 44 -102 51 -160 19 -116 -65 -86 -245 44 -266 43 -7 97
18 119 56 29 49 24 54 -44 48 l-61 -5 23 24 c19 21 32 24 87 24 l65 0 -7 -42
c-20 -122 -133 -181 -244 -127 -108 53 -134 202 -50 288 62 63 138 78 214 40z
m31 -395 c3 -8 1 -20 -5 -26 -15 -15 -43 8 -35 28 7 19 32 18 40 -2z"/>
<path d="M805 840 c-15 -17 -16 -24 -7 -45 11 -23 23 -30 47 -25 6 1 -1 -10
-13 -23 -23 -25 -24 -67 -1 -67 17 0 9 -19 -10 -25 -45 -14 -23 -90 23 -83 30
4 45 53 23 75 -15 15 -15 17 6 28 30 15 33 49 6 74 -18 16 -20 24 -11 33 17
17 15 44 -4 62 -21 21 -37 20 -59 -4z m55 -26 c0 -20 -30 -30 -40 -13 -11 17
7 40 26 32 8 -3 14 -12 14 -19z m18 -97 c4 -22 -27 -35 -38 -16 -10 15 7 42
24 36 6 -2 12 -11 14 -20z m-21 -93 c3 -8 1 -20 -5 -26 -15 -15 -43 8 -35 28
7 19 32 18 40 -2z"/>
<path d="M756 561 c-32 -35 3 -89 41 -65 35 22 40 44 14 65 -29 24 -34 24 -55
0z m42 -29 c2 -14 -2 -22 -12 -22 -19 0 -29 17 -22 36 8 22 30 12 34 -14z"/>
<path d="M241 382 c-90 -45 -86 -160 7 -199 28 -11 44 -13 64 -5 14 5 37 7 51
5 18 -4 28 1 36 16 15 27 52 27 76 1 10 -11 27 -19 39 -19 11 0 57 0 101 0 98
-1 134 3 159 13 11 6 21 5 25 -2 13 -21 59 -17 84 6 28 27 55 26 78 -2 17 -21
46 -17 55 8 3 8 -14 53 -37 100 -48 99 -70 110 -95 50 l-15 -37 -30 35 c-32
40 -69 54 -99 38 -14 -7 -25 -7 -38 1 -11 7 -33 9 -55 5 -42 -8 -51 -27 -48
-98 1 -27 -3 -48 -9 -48 -6 0 -10 26 -10 60 0 50 -3 61 -21 70 -26 14 -59 -11
-52 -39 8 -32 -14 -32 -27 -1 -18 43 -34 54 -59 38 -12 -7 -21 -16 -21 -21 0
-16 -33 -57 -42 -51 -5 3 -1 12 9 20 17 13 16 16 -15 44 -37 34 -63 37 -111
12z m104 -29 c11 -6 16 -15 12 -19 -4 -5 -17 -3 -27 4 -41 25 -94 9 -104 -32
-14 -57 38 -101 90 -77 35 16 32 43 -3 35 -16 -4 -30 -11 -31 -16 -7 -16 -32
14 -32 37 0 30 20 46 49 38 21 -5 21 -6 -9 -24 -17 -11 -28 -24 -25 -30 5 -7
13 -5 24 5 20 18 81 22 81 6 0 -20 -29 -68 -45 -74 -60 -23 -125 16 -125 74 0
80 72 116 145 73z m134 -66 c28 -62 36 -87 26 -87 -7 0 -17 9 -20 20 -9 29
-90 29 -98 0 -3 -11 -10 -20 -17 -20 -6 0 -10 4 -8 9 14 37 73 169 75 167 1
-1 20 -41 42 -89z m73 8 l-4 -75 31 0 c17 0 31 -4 31 -10 0 -5 -18 -10 -40
-10 l-40 0 0 85 c0 61 3 85 13 85 9 0 11 -20 9 -75z m158 65 c0 -5 -16 -10
-35 -10 -31 0 -35 -3 -35 -26 0 -25 2 -26 35 -20 28 6 35 4 35 -9 0 -11 -10
-15 -35 -15 -32 0 -35 -2 -35 -30 0 -28 3 -30 35 -30 19 0 35 -4 35 -10 0 -5
-20 -10 -45 -10 l-45 0 0 85 0 85 45 0 c25 0 45 -4 45 -10z m102 -7 c24 -21
23 -48 -3 -67 l-21 -14 23 -31 c12 -16 25 -28 29 -26 4 3 22 38 41 80 18 41
35 75 38 75 5 0 58 -109 79 -162 2 -4 -3 -8 -11 -8 -8 0 -17 9 -20 20 -4 16
-14 20 -47 20 -33 0 -43 -4 -47 -20 -4 -14 -14 -20 -33 -20 -22 0 -34 9 -52
38 l-23 37 -3 -37 c-2 -25 -8 -38 -18 -38 -11 0 -14 18 -14 85 l0 85 32 0 c17
0 40 -7 50 -17z m38 -72 c-6 -12 -15 -21 -21 -21 -5 0 -2 11 7 25 20 30 31 26
14 -4z m-145 -31 c4 -6 -5 -10 -20 -10 -15 0 -24 4 -20 10 3 6 12 10 20 10 8
0 17 -4 20 -10z"/>
<path d="M422 298 c-14 -37 -12 -41 21 -36 25 3 25 3 8 36 l-17 32 -12 -32z"/>
<path d="M760 320 c0 -33 19 -40 40 -15 10 12 10 18 0 30 -21 25 -40 18 -40
-15z"/>
<path d="M902 295 c-16 -35 -16 -35 17 -35 28 0 29 1 18 30 -14 37 -20 37 -35
5z"/>
<path d="M1178 310 c-4 -14 -9 -55 -12 -92 -10 -130 -64 -180 -207 -193 -84
-8 -88 -15 -7 -15 168 0 244 83 236 257 -2 46 -5 60 -10 43z"/>
<path d="M11 252 c-2 -165 78 -243 246 -241 l58 0 -87 19 c-140 29 -177 65
-193 184 -11 80 -24 100 -24 38z"/>
</g>
</svg>
