<?xml version="1.0" standalone="no"?>
<!DOCTYPE svg PUBLIC "-//W3C//DTD SVG 20010904//EN"
 "http://www.w3.org/TR/2001/REC-SVG-20010904/DTD/svg10.dtd">
<svg version="1.0" xmlns="http://www.w3.org/2000/svg"
 width="900.000000pt" height="675.000000pt" viewBox="0 0 900.000000 675.000000"
 preserveAspectRatio="xMidYMid meet">
<metadata>
Created by potrace 1.10, written by Peter Selinger 2001-2011
</metadata>
<g transform="translate(0.000000,675.000000) scale(0.100000,-0.100000)"
fill="#ff0000" stroke="none">
<path d="M8965 3383 l0 -3368 -4483 0 c-2465 0 -4482 -3 -4482 -7 0 -5 2025
-8 4500 -8 l4500 0 0 3375 c0 3208 -1 3375 -17 3375 -17 0 -18 -167 -18 -3367z"/>
<path d="M8789 6585 c-4 -3 -1949 -7 -4323 -8 l-4316 -2 0 -3203 0 -3202 4331
0 c2382 0 4335 3 4340 6 6 3 7 15 3 27 -8 26 -12 6120 -4 6256 4 76 2 98 -10
113 -8 11 -18 17 -21 13z m-1032 -96 c19 -8 160 -12 448 -14 234 -1 435 -6
455 -11 44 -12 51 -45 18 -94 -29 -42 -157 -145 -215 -171 -24 -11 -43 -23
-43 -28 0 -8 -71 -61 -154 -113 -33 -20 -62 -41 -65 -46 -3 -5 -64 -48 -135
-96 -132 -89 -161 -110 -220 -158 -19 -16 -37 -28 -41 -28 -6 0 -154 -99 -165
-110 -12 -13 -88 -70 -93 -70 -6 0 -39 -23 -170 -117 -40 -28 -108 -76 -152
-107 -44 -30 -98 -69 -120 -85 -22 -17 -53 -37 -70 -44 -16 -8 -41 -26 -54
-41 -14 -14 -28 -26 -32 -26 -5 0 -37 -21 -72 -47 -35 -27 -83 -59 -107 -73
-23 -14 -59 -40 -80 -57 -21 -18 -42 -33 -48 -33 -6 0 -15 -6 -19 -13 -4 -7
-26 -24 -48 -37 -22 -13 -42 -27 -45 -30 -11 -12 -88 -70 -94 -70 -10 0 -132
-87 -167 -120 -19 -16 -39 -30 -46 -30 -7 0 -27 -13 -45 -28 -18 -16 -40 -32
-48 -36 -42 -20 -156 -103 -179 -129 -7 -10 -19 -17 -26 -17 -8 0 -33 -15 -58
-34 -24 -19 -55 -39 -67 -46 -13 -7 -34 -25 -48 -41 -13 -16 -31 -29 -39 -29
-8 0 -51 -27 -94 -60 -43 -33 -82 -60 -87 -60 -4 0 -23 -14 -42 -31 -18 -17
-47 -36 -62 -41 -17 -6 -35 -23 -44 -42 -8 -17 -25 -49 -39 -71 -28 -46 -31
-65 -10 -65 9 0 15 9 15 22 0 12 7 28 15 37 67 72 129 131 139 131 3 0 32 19
65 43 32 23 68 49 81 57 12 8 28 20 34 25 6 6 38 28 71 50 33 22 86 59 117 82
31 24 59 43 63 43 4 0 12 6 19 13 8 6 24 19 36 27 12 8 41 29 64 46 40 30 141
99 174 119 9 6 21 15 28 20 6 6 22 17 34 25 12 8 41 29 64 46 34 26 102 72
175 119 8 6 20 15 27 20 6 6 22 17 34 25 12 8 51 36 87 63 35 26 67 47 71 47
4 0 22 14 41 30 18 17 38 30 43 30 5 0 15 6 22 13 8 6 23 19 36 27 50 34 156
111 170 122 15 14 44 32 70 45 8 4 29 20 45 35 17 15 34 28 38 28 5 0 35 20
67 45 32 25 63 45 68 45 6 0 12 3 14 8 3 8 64 52 72 52 3 0 20 14 38 30 18 17
36 30 41 30 4 0 13 5 20 10 31 26 106 80 112 80 4 0 13 6 20 13 23 20 37 30
100 72 33 22 64 46 68 53 4 6 12 12 17 12 9 0 91 53 116 75 6 6 22 17 34 25
12 8 42 30 66 48 23 17 45 32 48 32 3 0 32 19 65 43 32 23 68 49 81 57 12 8
28 20 34 25 6 6 29 22 51 35 22 13 45 29 51 35 6 5 22 17 34 25 12 8 42 30 66
48 23 17 46 32 49 32 6 0 19 10 49 37 14 12 51 33 144 82 13 7 26 11 28 8 2
-2 -3 -26 -12 -53 -13 -40 -16 -123 -20 -464 -2 -228 -4 -462 -4 -519 0 -103
12 -175 30 -186 34 -21 -28 -93 -148 -171 -31 -21 -76 -51 -98 -68 -23 -17
-52 -38 -64 -46 -31 -21 -138 -96 -215 -150 -35 -25 -73 -52 -86 -60 -12 -8
-47 -33 -78 -55 -31 -23 -73 -51 -93 -64 -21 -12 -38 -27 -38 -32 0 -5 -5 -9
-11 -9 -5 0 -30 -15 -54 -32 -24 -18 -74 -53 -110 -78 -37 -25 -72 -50 -78
-56 -7 -5 -20 -13 -29 -17 -10 -3 -18 -11 -18 -17 0 -5 -5 -10 -10 -10 -12 0
-62 -34 -100 -67 -13 -13 -28 -23 -33 -23 -7 0 -73 -46 -112 -78 -5 -4 -18
-11 -27 -15 -10 -3 -18 -11 -18 -17 0 -5 -5 -10 -11 -10 -5 0 -30 -15 -53 -32
-24 -18 -54 -40 -66 -48 -13 -8 -49 -34 -81 -57 -33 -24 -63 -43 -69 -43 -5 0
-13 -6 -17 -12 -8 -13 -32 -30 -183 -132 -41 -28 -80 -55 -86 -61 -7 -5 -24
-19 -38 -29 -14 -10 -26 -23 -26 -28 0 -5 -7 -16 -15 -24 -18 -19 -21 -154 -4
-171 6 -6 16 -20 23 -31 47 -84 79 -132 87 -132 5 0 9 -11 9 -25 0 -16 -6 -25
-15 -25 -8 0 -15 -4 -15 -10 0 -5 -5 -10 -10 -10 -12 0 -114 -70 -118 -82 -2
-4 -9 -8 -17 -8 -7 0 -42 -21 -78 -47 -36 -27 -75 -55 -87 -63 -13 -8 -51 -35
-87 -60 -35 -25 -93 -65 -129 -90 -36 -25 -74 -52 -84 -60 -11 -8 -50 -35 -86
-60 -37 -25 -82 -60 -102 -78 -42 -40 -85 -41 -90 -3 -3 22 -21 55 -60 116 -6
11 -16 29 -21 41 -5 11 -27 50 -48 85 -22 35 -42 71 -46 79 -4 8 -23 42 -42
75 -19 33 -40 69 -45 80 -6 11 -19 34 -30 50 -11 17 -25 41 -30 55 -6 13 -14
27 -18 30 -4 3 -17 25 -30 50 -13 25 -32 59 -42 75 -11 17 -25 41 -30 55 -6
13 -14 27 -18 30 -4 3 -15 21 -26 40 -10 19 -31 59 -47 89 -35 66 -49 142 -42
239 4 48 2 72 -5 72 -15 0 -31 -61 -25 -94 3 -15 1 -26 -6 -26 -7 0 -11 -27
-11 -76 0 -66 4 -84 36 -147 20 -40 46 -90 59 -112 13 -22 30 -51 36 -65 7
-14 20 -34 29 -45 22 -27 91 -148 121 -212 13 -29 27 -53 30 -53 4 0 13 -15
20 -32 7 -18 26 -52 42 -76 16 -23 44 -73 63 -110 20 -37 41 -71 48 -77 7 -5
20 -23 29 -40 41 -79 51 -92 89 -122 22 -18 51 -33 65 -33 26 0 193 84 205
103 3 6 20 18 37 26 42 22 152 97 176 120 18 17 103 76 219 154 22 15 58 35
79 44 38 16 45 27 27 38 -19 12 -10 21 38 43 30 15 61 40 85 72 l39 50 -17 53
c-10 28 -30 75 -46 104 -15 28 -31 74 -35 102 -6 48 -5 52 35 102 23 29 65 67
94 85 28 18 63 41 77 52 14 10 40 27 58 36 17 9 32 20 32 24 0 4 15 16 33 26
17 11 50 33 72 51 22 18 56 40 75 50 19 10 55 35 80 55 25 21 64 48 88 59 24
12 51 30 62 41 10 10 29 24 41 30 12 7 47 32 76 56 30 24 58 44 63 44 5 0 29
17 53 38 24 20 70 53 101 72 67 40 183 122 231 163 18 15 36 27 39 27 8 0 152
99 207 142 20 15 40 28 44 28 4 0 18 10 30 23 22 22 122 89 173 116 15 7 46
29 69 48 47 38 96 58 118 49 17 -6 17 -11 17 -1506 l0 -955 -22 -50 c-23 -53
-56 -95 -75 -95 -6 0 -24 -13 -41 -28 -16 -16 -46 -38 -66 -51 -21 -12 -38
-26 -38 -31 0 -4 -12 -12 -27 -18 -16 -5 -45 -24 -65 -42 -20 -18 -46 -38 -57
-44 -39 -22 -136 -90 -169 -118 -18 -15 -38 -28 -45 -28 -8 0 -26 -13 -42 -30
-16 -16 -34 -30 -41 -30 -7 0 -19 -6 -26 -12 -7 -7 -36 -28 -63 -47 -28 -19
-54 -39 -60 -45 -16 -17 -83 -46 -109 -46 -30 0 -57 32 -106 126 -9 16 -25 43
-35 60 -34 51 -45 68 -61 99 -17 32 -36 65 -100 172 -23 37 -56 95 -73 128
-17 33 -45 80 -61 105 -24 38 -59 95 -159 265 -10 17 -36 61 -57 99 -21 37
-52 92 -69 121 -32 57 -63 95 -77 95 -26 0 5 -74 91 -213 21 -35 42 -73 45
-85 4 -12 12 -22 17 -22 5 0 9 -5 9 -11 0 -6 29 -59 64 -118 35 -58 73 -122
85 -141 12 -19 26 -47 32 -62 6 -16 15 -28 20 -28 5 0 9 -5 9 -11 0 -6 29 -59
64 -118 35 -58 73 -122 85 -141 12 -19 26 -47 32 -62 6 -16 15 -28 20 -28 5 0
9 -5 9 -11 0 -6 19 -44 43 -83 24 -39 46 -78 50 -86 29 -61 75 -135 89 -144
14 -9 21 -6 33 12 16 22 168 142 180 142 4 0 12 6 19 13 8 6 24 19 36 27 59
40 125 92 128 100 2 6 11 10 20 10 10 0 32 14 51 30 18 17 39 30 46 30 7 0 15
7 19 15 3 8 10 15 16 15 6 0 25 13 43 30 18 16 36 30 41 30 4 0 25 14 46 30
21 17 41 30 44 30 4 0 12 5 19 10 46 39 61 50 69 50 9 0 26 13 56 42 24 23
112 68 133 68 22 0 23 -11 9 -59 -5 -19 -12 -209 -14 -422 -4 -267 -9 -395
-17 -410 -9 -18 -8 -24 4 -30 13 -8 14 -74 12 -511 -1 -277 -6 -518 -10 -536
-9 -39 -57 -78 -83 -66 -9 4 -21 6 -27 4 -5 -1 -43 -2 -82 -1 -40 1 -79 1 -85
0 -7 0 -157 -2 -333 -4 -629 -9 -729 -12 -762 -26 -31 -12 -34 -12 -63 16 -16
16 -30 35 -30 42 0 8 -7 16 -15 19 -8 4 -15 12 -15 19 0 6 -9 22 -20 35 -11
13 -20 27 -20 31 0 5 -20 42 -45 82 -25 41 -45 78 -45 81 0 7 -12 23 -42 57
-10 10 -18 26 -18 34 0 8 -7 15 -15 15 -8 0 -15 -4 -15 -9 0 -12 68 -150 90
-181 42 -62 81 -145 78 -169 -3 -22 -10 -27 -48 -34 -25 -4 -115 -7 -200 -6
-85 1 -834 2 -1665 1 -830 0 -1519 0 -1530 0 -11 0 -766 0 -1678 -1 -912 -1
-1680 1 -1708 5 -90 12 -85 -49 -79 964 0 129 -1 2177 -2 2245 -2 129 -2 1489
0 1550 1 33 0 354 -1 714 l-2 654 27 28 c16 15 40 30 55 33 46 8 7076 0 7106
-8 15 -5 27 -12 27 -16 0 -15 -100 -110 -116 -110 -10 0 -64 -44 -64 -52 0
-11 28 -10 43 2 48 41 62 50 74 50 7 0 13 4 13 9 0 5 28 26 63 47 34 21 64 41
67 45 5 7 98 52 130 62 25 9 47 8 77 -4z"/>
<path d="M7235 6244 c-16 -14 -48 -34 -70 -45 -23 -10 -55 -32 -72 -47 -35
-31 -60 -48 -88 -61 -11 -5 -32 -20 -46 -33 -15 -14 -43 -35 -63 -47 -20 -13
-36 -26 -36 -31 0 -4 -10 -10 -23 -14 -13 -3 -44 -23 -68 -44 -24 -21 -65 -51
-90 -65 -25 -15 -56 -38 -69 -52 -13 -14 -31 -25 -40 -25 -16 0 -50 -29 -50
-43 0 -15 24 -6 60 23 21 17 41 30 45 30 4 0 24 14 45 30 21 17 43 30 49 30 6
0 11 4 11 9 0 9 107 81 121 81 5 0 9 4 9 9 0 7 72 58 148 106 15 9 22 14 54
40 7 6 31 22 53 35 22 13 54 37 70 52 17 15 35 28 41 28 7 0 14 7 18 15 3 8
12 15 21 15 8 0 15 7 15 15 0 21 -10 18 -45 -11z"/>
<path d="M6468 5707 c-9 -7 -26 -19 -38 -27 -12 -8 -51 -36 -87 -62 -35 -27
-66 -48 -69 -48 -11 0 -47 -40 -42 -46 7 -7 60 25 71 43 4 7 14 13 22 13 8 0
18 6 22 13 8 12 36 32 63 44 8 3 19 12 23 20 4 7 15 13 22 13 8 0 15 7 15 15
0 8 6 15 14 15 8 0 18 5 21 10 9 14 -16 12 -37 -3z"/>
<path d="M6180 5500 c0 -5 7 -10 15 -10 8 0 15 5 15 10 0 6 -7 10 -15 10 -8 0
-15 -4 -15 -10z"/>
<path d="M6135 5470 c-3 -5 3 -10 14 -10 12 0 21 5 21 10 0 6 -6 10 -14 10 -8
0 -18 -4 -21 -10z"/>
<path d="M5880 5290 c-12 -8 -11 -10 8 -10 12 0 22 5 22 10 0 13 -11 13 -30 0z"/>
<path d="M5800 5230 c0 -5 7 -10 15 -10 8 0 15 5 15 10 0 6 -7 10 -15 10 -8 0
-15 -4 -15 -10z"/>
<path d="M4380 3926 c0 -19 4 -37 9 -40 5 -3 12 -22 15 -41 4 -19 10 -35 14
-35 4 0 19 -21 32 -47 14 -27 27 -50 30 -53 3 -3 11 -16 18 -30 7 -14 22 -41
34 -60 11 -19 32 -55 45 -80 13 -25 33 -58 43 -75 11 -16 23 -37 27 -45 4 -8
26 -47 50 -86 24 -39 43 -76 43 -82 0 -5 7 -15 15 -22 8 -7 15 -20 15 -30 0
-10 7 -20 15 -24 8 -3 15 -12 15 -20 0 -7 7 -16 15 -20 8 -3 15 -12 15 -20 0
-17 31 -79 42 -84 4 -2 18 -24 30 -50 13 -26 29 -53 36 -60 6 -7 12 -20 12
-29 0 -27 36 -50 70 -45 16 2 30 6 30 8 0 2 -16 10 -35 18 -19 8 -35 22 -35
30 0 8 -6 19 -14 23 -8 4 -34 46 -57 93 -23 47 -56 108 -73 135 -49 79 -54 87
-81 140 -15 28 -32 59 -38 70 -7 11 -30 52 -52 90 -22 39 -45 79 -52 90 -7 11
-15 27 -19 35 -17 41 -39 80 -45 80 -7 0 -36 57 -59 117 -7 18 -19 38 -27 44
-14 12 -63 112 -63 129 0 6 -4 10 -10 10 -5 0 -10 -15 -10 -34z"/>
<path d="M539 3881 c-72 -23 -145 -92 -187 -178 -41 -85 -39 -175 7 -267 26
-52 41 -70 98 -109 40 -27 80 -47 95 -47 15 0 38 -4 51 -9 24 -9 96 5 113 22
4 4 13 7 20 7 7 0 33 14 57 30 25 17 51 30 59 30 7 0 19 -19 26 -42 18 -57 47
-99 89 -126 28 -19 37 -21 56 -11 12 7 27 18 32 25 12 16 122 74 140 74 7 0
28 14 46 31 19 18 48 42 64 55 l31 23 61 -53 c60 -52 62 -53 141 -60 89 -8
117 1 181 56 39 34 70 32 112 -8 32 -31 73 -31 111 1 37 32 70 32 99 0 36 -37
80 -33 128 10 21 19 43 35 48 35 6 0 30 -17 54 -38 61 -52 102 -64 186 -56 80
8 114 23 166 72 l37 36 33 -19 c17 -10 51 -34 75 -52 24 -18 52 -33 62 -33 25
0 110 37 110 48 0 6 10 12 23 16 15 4 39 -5 79 -29 52 -33 61 -35 141 -35 96
0 120 6 160 44 15 14 41 33 57 41 27 14 31 13 57 -8 68 -54 89 -64 149 -69 71
-7 113 8 162 55 27 26 35 30 50 19 9 -6 37 -24 60 -38 43 -26 45 -26 78 -10
43 20 84 21 110 1 23 -18 55 -19 89 -3 33 15 32 28 -3 28 -22 0 -45 16 -98 70
-38 39 -70 75 -72 80 -2 6 -10 10 -19 10 -13 0 -14 -11 -8 -68 5 -52 3 -71 -7
-80 -14 -11 -57 -6 -59 7 0 3 -1 104 -2 224 -2 232 0 242 45 235 23 -3 23 -5
23 -123 1 -66 2 -124 3 -130 1 -5 31 20 66 58 59 61 67 67 105 67 64 0 54 -26
-34 -89 -41 -30 -75 -59 -75 -66 0 -6 30 -36 66 -66 37 -30 79 -66 95 -81 15
-16 30 -28 33 -28 14 0 4 45 -25 102 -28 59 -29 66 -18 103 7 22 19 47 26 56
20 23 16 44 -14 80 -28 33 -78 59 -113 59 -13 0 -41 22 -72 55 -63 69 -85 71
-140 13 -22 -24 -44 -55 -49 -69 -11 -28 -41 -43 -56 -28 -18 18 -125 39 -162
33 -48 -9 -102 -38 -129 -69 -33 -38 -79 -34 -122 10 -48 50 -87 65 -169 65
-66 0 -73 -2 -108 -33 -58 -52 -80 -53 -122 -8 -50 53 -129 111 -152 111 -10
0 -43 -15 -72 -34 -52 -34 -55 -34 -79 -18 -14 9 -38 29 -53 44 -47 48 -165
64 -239 33 -40 -17 -115 -93 -133 -136 -7 -16 -15 -29 -18 -29 -3 0 -24 12
-48 27 -71 46 -104 54 -190 47 -71 -6 -82 -10 -128 -46 -42 -33 -55 -38 -80
-33 -16 4 -29 10 -29 15 0 13 -68 50 -116 62 -60 16 -134 -3 -196 -53 -71 -56
-84 -57 -127 -15 -57 55 -121 76 -215 69 -61 -5 -82 -11 -104 -30 -41 -36 -64
-39 -82 -13 -15 22 -34 42 -96 101 -54 51 -165 74 -245 50z m156 -87 c55 -26
99 -82 118 -151 15 -57 15 -66 1 -126 -34 -138 -162 -205 -282 -147 -67 33
-121 125 -122 208 -1 157 158 277 285 216z m1870 -4 c17 -14 20 -75 4 -85 -5
-4 -19 1 -29 10 -11 10 -43 19 -78 22 -52 5 -62 3 -81 -16 -11 -11 -21 -30
-21 -40 0 -28 47 -61 87 -61 42 0 105 -31 132 -66 29 -37 28 -110 -2 -145 -34
-40 -83 -59 -154 -59 -35 0 -71 4 -81 9 -9 5 -25 12 -34 15 -13 4 -18 16 -18
41 0 29 4 35 20 35 12 0 32 -7 45 -16 14 -9 47 -17 74 -17 42 -2 55 2 77 25
50 49 14 97 -85 113 -50 8 -107 39 -121 65 -6 10 -10 38 -10 62 0 48 24 80 85
113 36 19 165 16 190 -5z m248 -57 c-2 -47 -4 -46 68 -43 50 1 64 -9 54 -40
-8 -25 -43 -34 -80 -20 -39 15 -45 3 -45 -93 0 -104 8 -117 71 -117 55 0 68
-14 49 -49 -21 -40 -138 -19 -169 31 -11 17 -14 49 -12 118 2 86 0 98 -18 115
-27 23 -27 42 0 50 18 6 20 12 14 41 -8 45 0 56 38 52 31 -3 32 -5 30 -45z
m-1585 -93 c33 -43 34 -46 30 -125 -2 -61 -7 -86 -20 -99 -10 -10 -18 -20 -18
-24 0 -14 -62 -42 -91 -42 -16 0 -41 7 -54 16 -35 23 -42 12 -35 -48 9 -66 -2
-90 -38 -86 l-27 3 0 225 0 225 55 0 c30 0 64 5 74 12 32 18 86 -7 124 -57z
m373 55 c75 -27 122 -102 105 -171 l-7 -26 -112 3 c-126 4 -136 -2 -93 -56 22
-27 30 -30 80 -29 30 0 66 6 80 13 32 18 56 8 56 -22 0 -51 -137 -80 -210 -45
-66 32 -100 86 -100 161 0 88 40 149 113 172 23 7 43 13 43 14 1 1 21 -6 45
-14z m465 -6 c12 -4 31 -20 43 -35 19 -24 21 -39 21 -164 0 -146 -3 -156 -47
-139 -27 10 -26 3 -23 145 2 106 1 112 -21 128 -33 23 -53 20 -88 -13 l-31
-29 0 -116 c0 -86 -3 -116 -12 -117 -18 -2 -52 2 -57 7 -6 6 -2 314 4 324 10
16 52 11 59 -6 5 -14 9 -14 23 -3 42 36 72 40 129 18z m1167 2 c73 -32 85 -57
88 -197 2 -65 0 -125 -5 -132 -11 -18 -43 -15 -55 6 -9 16 -13 16 -51 -6 -50
-28 -81 -24 -133 19 -33 27 -37 35 -37 78 0 38 6 54 27 77 23 26 34 29 106 34
88 5 101 16 66 49 -17 15 -36 21 -70 21 -26 0 -51 -4 -54 -10 -7 -12 -62 -13
-69 -2 -12 19 7 52 33 57 14 3 37 10 51 14 39 14 55 12 103 -8z m477 2 c31 -8
35 -13 38 -46 3 -33 1 -37 -20 -37 -13 0 -32 7 -42 15 -45 34 -108 9 -132 -54
-14 -38 -15 -50 -4 -80 20 -58 37 -71 93 -71 32 0 57 6 68 16 23 21 39 10 39
-25 0 -40 -41 -66 -105 -66 -130 0 -214 141 -156 261 24 49 46 69 96 88 40 15
61 14 125 -1z m-725 -115 c-4 -17 -15 -44 -25 -60 -14 -24 -19 -26 -24 -13
-11 31 -6 59 16 82 30 32 41 29 33 -9z m802 -27 c-2 -22 -1 -43 3 -48 4 -4 11
-18 15 -30 5 -18 2 -23 -11 -23 -21 0 -64 38 -64 57 0 7 -7 13 -15 13 -42 0
21 69 64 70 10 0 12 -10 8 -39z m-1529 -38 c2 -8 -5 -13 -17 -13 -12 0 -21 6
-21 16 0 18 31 15 38 -3z"/>
<path d="M535 3704 c-37 -40 -50 -107 -35 -184 21 -113 161 -141 220 -44 15
24 20 49 20 109 0 77 0 78 -39 116 -34 34 -44 39 -86 39 -41 0 -51 -4 -80 -36z"/>
<path d="M1062 3617 c-18 -19 -22 -35 -22 -93 0 -61 3 -74 23 -92 31 -29 70
-28 102 3 22 22 25 35 25 90 0 53 -4 68 -24 89 -30 33 -75 34 -104 3z"/>
<path d="M1497 3612 c-43 -45 -36 -52 53 -52 92 0 109 14 70 56 -34 35 -88 33
-123 -4z"/>
<path d="M3189 3520 c-57 -7 -79 -24 -79 -61 0 -56 83 -64 127 -12 25 28 30
68 11 75 -7 2 -34 1 -59 -2z"/>
<path d="M6793 2977 c-10 -13 -31 -32 -48 -42 -16 -11 -37 -26 -46 -34 -9 -9
-55 -41 -103 -71 -48 -30 -120 -81 -161 -112 -41 -32 -81 -58 -90 -58 -9 0
-18 -7 -21 -15 -3 -8 -26 -25 -51 -37 -24 -12 -49 -30 -54 -40 -5 -10 -15 -18
-20 -18 -19 0 -139 -101 -164 -139 -24 -34 -34 -95 -17 -103 4 -1 17 -23 30
-48 33 -67 74 -140 105 -187 15 -24 27 -46 27 -50 0 -3 6 -14 14 -22 7 -9 35
-56 61 -106 26 -49 53 -97 61 -106 8 -8 14 -20 14 -26 0 -6 20 -41 45 -77 25
-37 45 -76 45 -86 0 -11 8 -24 18 -29 10 -5 29 -31 43 -58 14 -26 39 -70 56
-98 71 -117 143 -243 143 -252 0 -5 12 -25 26 -44 14 -19 37 -56 49 -84 27
-59 109 -142 145 -146 25 -3 170 58 170 71 0 4 36 28 80 54 44 25 80 51 80 57
0 5 19 19 43 29 23 10 59 35 81 54 21 20 42 36 46 36 4 0 20 11 36 25 16 14
59 43 96 65 56 34 75 40 121 40 104 0 100 -49 -8 -127 -33 -23 -71 -48 -85
-55 -26 -13 -114 -77 -141 -103 -9 -8 -20 -15 -26 -15 -6 0 -25 -13 -43 -30
-18 -16 -34 -30 -37 -30 -3 0 -22 -13 -43 -30 -21 -16 -41 -30 -45 -30 -4 0
-20 -10 -35 -22 -15 -13 -55 -43 -89 -67 -62 -44 -82 -79 -38 -65 12 3 24 11
25 15 2 5 8 9 13 9 9 0 58 32 85 55 6 6 22 17 34 25 13 8 48 33 79 55 56 40
130 91 160 110 8 6 20 15 27 20 6 6 22 17 34 25 13 8 48 33 79 55 148 105 217
151 249 165 12 5 22 16 22 25 0 15 -14 20 -92 30 -26 3 -50 10 -53 14 -2 5
-21 12 -42 16 -20 4 -46 13 -57 21 -17 12 -24 11 -55 -8 -20 -12 -37 -26 -39
-30 -2 -4 -9 -8 -16 -8 -6 0 -19 -8 -28 -17 -9 -10 -46 -38 -83 -63 -37 -25
-95 -65 -130 -90 -35 -25 -73 -52 -86 -60 -12 -8 -47 -33 -78 -55 -31 -22 -67
-48 -81 -56 -14 -9 -43 -33 -65 -52 -59 -54 -77 -50 -117 29 -55 109 -61 119
-70 122 -4 2 -8 8 -8 14 0 6 -29 58 -64 117 -35 58 -73 122 -85 141 -12 19
-26 47 -32 63 -6 15 -15 27 -20 27 -5 0 -9 5 -9 11 0 6 -33 66 -73 133 -40 66
-76 128 -80 136 -4 8 -16 29 -27 45 -11 17 -25 42 -31 58 -6 15 -15 27 -20 27
-5 0 -9 5 -9 11 0 6 -22 48 -49 93 -85 141 -91 150 -102 176 -5 13 -13 27 -17
30 -4 3 -18 25 -31 49 -24 46 -33 58 -63 92 -10 10 -18 30 -18 44 0 15 7 28
18 32 18 6 149 90 168 108 6 5 22 17 34 25 13 8 48 33 79 55 31 22 83 58 116
80 33 22 65 44 71 50 6 5 22 17 34 25 12 8 52 36 89 61 182 129 241 174 241
186 0 8 -13 13 -39 13 -29 0 -44 -6 -58 -23z"/>
<path d="M5075 2830 c3 -5 19 -10 36 -10 16 0 29 5 29 10 0 6 -16 10 -36 10
-21 0 -33 -4 -29 -10z"/>
<path d="M5160 2655 c-19 -13 -41 -24 -47 -24 -15 -1 -18 -31 -3 -31 5 0 12
-11 16 -25 9 -35 29 -26 29 12 0 21 9 39 28 57 46 42 33 49 -23 11z"/>
<path d="M8060 1061 c0 -6 8 -14 18 -17 9 -3 25 -10 34 -15 27 -14 68 -11 68
5 0 17 -13 22 -74 31 -32 5 -46 4 -46 -4z"/>
</g>
</svg>
