<?xml version="1.0" standalone="no"?>
<!DOCTYPE svg PUBLIC "-//W3C//DTD SVG 20010904//EN"
 "http://www.w3.org/TR/2001/REC-SVG-20010904/DTD/svg10.dtd">
<svg version="1.0" xmlns="http://www.w3.org/2000/svg"
 width="300.000000pt" height="408.000000pt" viewBox="0 0 300.000000 408.000000"
 preserveAspectRatio="xMidYMid meet">
<metadata>
Created by potrace 1.10, written by Peter Selinger 2001-2011
</metadata>
<g transform="translate(0.000000,408.000000) scale(0.100000,-0.100000)"
fill="#f7af00" stroke="none">
<path d="M2185 4015 c-49 -35 -105 -74 -123 -87 -19 -13 -61 -44 -95 -69 -34
-25 -67 -48 -72 -50 -10 -4 -231 -159 -421 -294 -46 -33 -156 -109 -243 -170
-88 -60 -160 -114 -161 -118 0 -4 28 12 63 36 34 24 213 149 397 278 694 484
772 539 759 538 -8 0 -54 -29 -104 -64z"/>
<path d="M2949 3957 c-24 -18 -82 -59 -129 -90 -47 -32 -146 -101 -220 -153
-74 -52 -153 -107 -175 -122 -22 -15 -44 -32 -48 -39 -4 -7 -13 -13 -20 -13
-7 0 -28 -13 -48 -29 -20 -17 -78 -58 -129 -93 -51 -35 -112 -76 -135 -93 -23
-16 -71 -50 -106 -74 -35 -25 -125 -87 -199 -140 -74 -52 -155 -108 -180 -125
-25 -17 -46 -34 -48 -38 -2 -4 -8 -8 -13 -8 -6 0 -45 -26 -87 -57 -42 -32 -86
-63 -97 -68 -11 -6 -41 -27 -67 -46 -53 -39 -115 -82 -277 -195 -186 -128
-212 -162 -219 -284 -5 -91 -20 -58 197 -434 89 -153 161 -281 161 -286 0 -4
9 -15 21 -26 16 -15 23 -16 37 -6 9 7 25 15 35 18 9 4 17 10 17 14 0 4 28 25
63 48 34 23 82 56 107 74 25 17 75 52 111 78 120 81 229 161 229 167 0 3 -18
38 -40 78 -47 85 -52 131 -17 169 12 14 67 57 122 95 55 39 121 85 148 103 26
18 66 47 90 64 23 17 119 83 212 148 94 64 177 122 185 129 8 7 42 30 75 51
33 22 62 42 65 45 3 3 25 20 50 36 25 17 50 34 55 38 16 13 175 125 225 157
25 17 52 35 60 40 8 6 21 15 29 19 7 5 12 14 10 20 -2 6 -303 -199 -669 -455
-490 -342 -670 -473 -682 -497 -27 -48 -22 -83 22 -159 22 -39 40 -73 40 -76
-1 -7 -534 -380 -554 -388 -6 -2 -30 29 -52 69 -23 39 -107 186 -187 325 -157
274 -170 308 -148 392 23 85 46 106 339 313 155 108 284 197 288 197 3 0 0 -7
-7 -16 -15 -18 -21 -114 -7 -114 4 0 8 -5 8 -10 0 -7 -6 -7 -19 0 -32 16 -47
12 -93 -26 -56 -47 -60 -55 -43 -87 14 -27 14 -27 -8 -12 -57 40 -146 -10
-147 -83 0 -19 7 -49 16 -67 14 -31 14 -36 -1 -59 -20 -30 -57 -55 -76 -53
-41 6 -86 68 -73 101 7 18 48 46 67 46 21 0 38 25 31 44 -17 44 -118 12 -159
-50 -51 -77 36 -214 135 -214 61 0 130 55 130 104 0 21 3 27 11 19 18 -18 81
3 112 38 23 24 28 39 25 65 l-4 34 21 -20 c25 -24 48 -25 65 -5 11 13 7 25
-25 70 -34 50 -41 85 -16 85 5 0 22 -16 37 -36 16 -20 36 -46 45 -57 13 -17
18 -18 37 -6 31 19 28 38 -18 102 -22 32 -34 57 -27 57 7 -1 28 -24 47 -53 37
-54 68 -69 89 -43 11 13 9 21 -8 48 -45 72 -53 90 -43 100 7 7 24 -9 51 -46
44 -59 68 -69 89 -36 10 17 10 25 -3 43 -22 31 -19 38 13 21 15 -7 32 -14 39
-14 6 0 9 -8 6 -19 -3 -13 2 -23 17 -31 45 -24 120 35 120 96 0 15 -11 46 -24
69 l-25 41 34 13 c19 7 43 23 53 36 l19 24 13 -24 c7 -14 22 -27 32 -31 22 -7
106 44 142 87 14 16 34 29 45 29 28 0 81 56 81 87 0 23 2 25 35 19 40 -8 56
-1 110 48 37 34 38 37 25 63 -8 16 -16 32 -19 38 -2 5 8 2 22 -8 45 -29 79
-25 130 18 52 43 55 53 30 93 l-17 27 22 -19 c62 -53 215 45 159 102 -15 15
-18 14 -39 -4 -13 -10 -34 -25 -48 -32 -21 -10 -20 -9 5 10 16 13 39 32 51 44
l22 21 26 -34 c23 -29 29 -31 46 -21 31 20 31 33 -5 89 l-34 54 19 30 c13 22
16 35 9 48 -14 25 -35 21 -81 -15 -36 -30 -39 -36 -34 -67 4 -26 2 -31 -6 -23
-7 7 -25 12 -41 12 -59 0 -106 -44 -107 -100 l0 -35 -44 45 c-32 34 -41 48
-32 56 6 7 142 103 301 214 328 229 300 208 293 215 -3 3 -25 -10 -49 -28z
m-211 -295 c2 -7 -3 -12 -12 -12 -33 0 -30 -48 7 -104 25 -37 32 -57 25 -64
-7 -7 -27 12 -65 65 -40 56 -51 78 -41 84 7 5 16 3 20 -4 6 -9 8 -8 8 2 0 19
31 52 44 48 5 -2 12 -9 14 -15z m-101 -116 c15 -13 26 -26 23 -28 -3 -2 -29
-22 -59 -43 -49 -35 -52 -40 -35 -52 29 -21 60 -15 88 18 14 17 30 27 36 24
27 -17 -51 -85 -98 -85 -14 0 -39 15 -58 34 -46 46 -47 93 -3 130 38 32 70 33
106 2z m-174 -117 c37 -55 65 -104 62 -110 -5 -7 -12 -6 -21 2 -11 9 -14 8
-14 -6 0 -28 -30 -55 -59 -55 -50 0 -101 58 -101 115 0 34 35 68 66 62 30 -5
30 -2 -2 35 -14 17 -23 37 -20 45 4 8 1 11 -5 8 -6 -4 -9 -20 -7 -35 2 -21 -5
-36 -25 -54 -24 -22 -34 -51 -27 -81 10 -50 11 -49 -10 -30 -19 17 -100 31
-100 16 0 -3 -13 -14 -29 -24 -34 -20 -44 -49 -26 -74 12 -16 16 -16 37 -4 23
14 23 14 4 -8 -11 -11 -15 -21 -11 -21 5 0 6 -3 2 -6 -3 -3 -20 4 -37 16 -36
26 -82 22 -123 -10 -44 -35 -44 -109 0 -161 11 -13 8 -19 -18 -38 -17 -12 -36
-20 -43 -18 -7 3 -32 35 -57 71 -36 54 -48 66 -68 64 -46 -5 -48 -31 -7 -93
21 -32 33 -54 27 -51 -6 4 -16 2 -23 -3 -7 -6 -26 -22 -43 -35 l-30 -25 -28
27 c-23 22 -31 24 -45 14 -9 -7 -28 -17 -42 -23 -41 -17 -60 -40 -66 -81 -4
-21 -10 -38 -15 -38 -5 0 -9 4 -9 8 0 4 -13 23 -29 42 l-28 34 -43 -28 c-23
-15 -44 -26 -46 -23 -7 7 969 685 980 680 6 -2 42 -49 79 -104z m-185 -116
c11 -10 34 -38 51 -62 30 -43 32 -68 5 -57 -8 3 -14 -1 -14 -9 0 -16 -47 -55
-66 -55 -22 0 -54 38 -54 64 0 16 13 35 38 56 30 25 34 32 22 40 -25 16 -40
12 -71 -19 -16 -16 -29 -28 -29 -26 0 2 -3 10 -6 18 -3 10 8 24 33 41 44 31
64 32 91 9z m-158 -108 c59 -31 77 -109 35 -150 -35 -35 -79 -33 -115 5 -52
56 -46 126 13 150 31 12 34 12 67 -5z m-230 -166 c30 -44 58 -83 62 -85 3 -2
26 11 51 30 32 24 48 31 56 23 15 -15 -105 -102 -122 -88 -27 22 -129 180
-122 190 11 19 19 12 75 -70z m-60 -119 c-23 -19 -38 -25 -45 -19 -7 7 2 20
25 39 23 19 38 25 45 19 7 -7 -2 -20 -25 -39z m-76 -47 c71 -100 72 -144 6
-178 -37 -19 -50 -19 -50 0 0 8 8 15 17 15 38 0 62 44 47 85 -5 13 -10 10 -25
-14 -35 -58 -97 -48 -139 22 -26 43 -25 63 6 94 18 17 33 24 50 20 18 -3 22
-1 14 8 -10 12 -4 25 11 25 5 0 33 -35 63 -77z m-254 -27 c-6 -6 -15 -5 -25 4
-12 10 -13 16 -3 27 10 13 14 12 25 -3 8 -11 10 -21 3 -28z m-58 -22 c-24 -17
-26 -22 -13 -43 7 -11 17 -8 49 17 22 18 42 32 45 32 11 0 106 -143 101 -151
-11 -18 -22 -8 -66 55 -41 60 -45 63 -63 49 -11 -8 -26 -18 -34 -22 -10 -6 -3
-23 32 -71 42 -57 50 -80 28 -80 -5 0 -27 27 -51 61 -26 37 -47 58 -56 55 -16
-6 -29 10 -14 19 7 4 7 12 0 25 -15 28 -12 39 17 66 18 17 30 21 37 14 7 -7 3
-15 -12 -26z m-72 -134 c19 -10 90 -104 90 -119 0 -29 -24 -15 -56 33 -40 60
-56 71 -85 56 -29 -16 -23 -57 15 -111 27 -37 32 -50 22 -58 -9 -8 -25 8 -64
63 -41 61 -49 76 -37 86 10 8 14 8 18 -2 4 -9 6 -7 6 4 1 17 46 58 63 58 5 0
18 -4 28 -10z m-146 -131 c58 -46 68 -107 24 -149 -33 -31 -74 -26 -114 14
-46 46 -47 93 -3 130 37 31 58 33 93 5z m-194 -54 c11 -13 8 -15 -20 -15 -47
0 -94 -50 -86 -91 20 -102 118 -131 172 -52 18 26 24 30 33 19 8 -10 6 -20
-10 -40 -47 -60 -118 -72 -169 -30 -81 69 -80 154 4 205 37 23 59 24 76 4z"/>
<path d="M2542 3528 c-12 -12 -17 -68 -6 -68 3 0 22 12 42 27 20 15 39 29 42
31 8 6 -24 22 -45 22 -12 0 -26 -5 -33 -12z"/>
<path d="M2378 3409 c-43 -25 2 -119 56 -119 53 0 55 79 2 115 -24 17 -35 18
-58 4z m58 -36 c16 -21 18 -63 4 -63 -17 0 -60 47 -60 65 0 21 40 19 56 -2z"/>
<path d="M2257 3238 c-30 -22 -35 -49 -13 -67 23 -19 56 3 56 37 0 45 -12 53
-43 30z m18 -37 c-3 -6 -11 -11 -17 -11 -6 0 -6 6 2 15 14 17 26 13 15 -4z"/>
<path d="M2047 3172 c-10 -10 -17 -26 -17 -35 0 -25 50 -77 74 -77 51 0 61 51
20 99 -29 35 -54 39 -77 13z m66 -33 c17 -23 11 -59 -9 -59 -16 0 -44 39 -44
62 0 25 35 23 53 -3z"/>
<path d="M1635 2880 c-15 -17 -16 -23 -5 -50 13 -31 45 -60 67 -60 18 0 43 29
43 50 0 25 -48 80 -69 80 -10 0 -26 -9 -36 -20z m74 -43 c11 -27 5 -37 -20
-37 -22 0 -45 41 -35 65 8 21 44 3 55 -28z"/>
<path d="M1148 2539 c-44 -25 -2 -119 52 -119 57 0 61 77 6 115 -24 17 -35 18
-58 4z m54 -36 c22 -20 24 -62 3 -59 -25 4 -55 34 -55 56 0 25 26 26 52 3z"/>
<path d="M1035 3210 c-4 -6 -25 -23 -48 -37 -23 -14 -44 -29 -47 -33 -3 -3
-21 -16 -41 -28 -20 -12 -43 -30 -50 -39 -8 -10 31 14 86 51 111 77 135 96
118 96 -7 0 -15 -5 -18 -10z"/>
<path d="M810 3050 c-8 -5 -12 -12 -9 -15 4 -3 12 1 19 10 14 17 11 19 -10 5z"/>
<path d="M733 2995 c-28 -19 -55 -40 -59 -47 -7 -11 80 47 111 74 21 18 -4 6
-52 -27z"/>
<path d="M2265 2990 c-15 -17 -16 -24 -7 -45 10 -22 9 -27 -13 -41 -24 -16
-42 -55 -37 -81 3 -16 -10 -17 -25 -2 -28 28 -108 -25 -119 -79 -6 -27 -8 -30
-18 -17 -9 13 -17 14 -37 6 -20 -7 -30 -6 -40 5 -13 12 -18 12 -37 -2 -38 -27
-21 -77 54 -153 69 -70 86 -74 141 -27 22 19 25 27 16 38 -10 11 -7 13 20 10
22 -2 43 4 66 20 47 32 59 53 44 77 -11 18 -11 19 14 6 18 -9 33 -11 50 -4 30
11 113 78 113 91 0 5 -24 42 -54 81 -29 40 -58 83 -65 95 -19 36 -46 45 -66
22z m100 -109 c49 -69 64 -96 55 -105 -8 -8 -13 -7 -20 4 -8 12 -10 12 -10 -4
0 -31 -30 -56 -66 -56 -75 0 -128 127 -69 166 14 9 34 14 45 11 20 -5 20 -5 0
24 -12 15 -25 31 -31 35 -6 4 -6 11 2 20 14 18 10 23 94 -95z m-180 -80 c3 -5
-5 -13 -17 -16 -63 -20 -75 -69 -28 -116 35 -35 62 -33 96 8 17 19 22 22 27
10 3 -8 -6 -26 -22 -41 -38 -36 -88 -35 -123 2 -51 52 -48 110 5 143 35 21 53
24 62 10z m65 -79 c0 -12 -53 -52 -70 -52 -21 0 -48 38 -43 61 2 9 15 21 29
28 13 6 27 18 30 26 5 11 12 6 30 -21 13 -19 24 -38 24 -42z m-284 -17 c8 -19
28 -19 44 0 7 8 16 12 21 9 15 -9 10 -20 -15 -34 l-24 -12 35 -50 c36 -49 41
-51 86 -33 26 11 21 -12 -8 -31 -35 -23 -55 -15 -97 41 -21 28 -44 49 -52 47
-9 -1 -14 6 -13 20 0 13 -3 31 -7 41 -6 12 -4 17 8 17 9 0 19 -7 22 -15z m122
-52 c18 -28 20 -38 11 -49 -10 -12 -15 -12 -31 3 -32 29 -40 51 -26 68 18 20
20 19 46 -22z"/>
<path d="M2270 2860 c-16 -16 -18 -24 -9 -49 15 -41 42 -63 76 -59 24 3 28 8
31 39 3 30 -2 41 -28 63 -38 31 -44 32 -70 6z m65 -36 c18 -28 14 -54 -9 -54
-18 0 -46 38 -46 62 0 27 35 22 55 -8z"/>
<path d="M1850 2691 c0 -5 -8 -12 -18 -15 -10 -3 -37 -23 -60 -43 l-42 -38 65
-95 c35 -52 73 -99 84 -104 15 -6 34 2 85 39 68 48 77 63 51 85 -12 10 -23 7
-61 -14 -25 -14 -50 -23 -55 -20 -11 6 -12 34 -1 34 13 0 62 51 62 65 0 8 -9
19 -20 25 -16 8 -28 5 -59 -15 -46 -28 -65 -19 -21 10 40 27 57 60 40 80 -14
16 -50 21 -50 6z m40 -29 c0 -4 -20 -20 -45 -37 -24 -16 -45 -32 -45 -35 0 -3
9 -16 19 -29 l18 -24 45 31 c41 28 58 32 58 11 0 -4 -20 -20 -44 -35 l-44 -28
25 -37 25 -38 48 35 c52 37 60 40 60 21 0 -7 -27 -32 -59 -55 l-59 -42 -70 97
-69 98 60 42 c55 38 77 45 77 25z"/>
<path d="M151 2404 c-1 -23 47 -115 184 -355 102 -178 191 -329 198 -335 14
-13 187 -57 194 -50 5 5 -41 19 -124 36 -28 6 -57 18 -63 25 -11 14 -140 234
-140 240 0 1 -36 64 -79 139 -44 75 -77 136 -73 136 4 0 3 4 -3 8 -17 12 -55
71 -55 85 0 7 -4 17 -9 23 -5 5 -14 25 -19 44 l-10 35 -1 -31z"/>
<path d="M1743 1799 c2 -12 -27 -34 -205 -157 -144 -99 -161 -111 -181 -128
-10 -8 -41 -29 -68 -45 -27 -17 -55 -40 -63 -51 -16 -23 -25 -3 89 -198 37
-63 77 -131 88 -150 10 -19 42 -73 70 -120 27 -47 58 -98 67 -115 10 -16 41
-70 70 -120 29 -49 61 -106 72 -125 38 -67 81 -131 85 -126 6 6 11 -3 -280
494 -243 416 -258 444 -240 457 10 8 136 96 280 197 194 136 258 185 245 190
-25 10 -32 9 -29 -3z"/>
<path d="M1803 1787 c4 -10 120 -211 257 -447 l251 -428 153 106 c83 59 238
167 344 241 105 74 190 137 187 139 -4 4 -67 -34 -100 -61 -5 -4 -48 -35 -95
-67 -47 -33 -89 -63 -95 -68 -5 -4 -62 -44 -125 -87 -63 -44 -128 -90 -145
-102 -47 -34 -116 -75 -120 -71 -2 1 -114 192 -250 423 -229 389 -279 470
-262 422z"/>
<path d="M673 1606 l-62 -42 81 -137 c44 -76 83 -136 86 -133 3 3 0 11 -6 18
-5 7 -19 29 -30 48 -11 19 -40 71 -66 115 l-46 80 28 25 c16 14 42 35 58 47
49 37 22 24 -43 -21z"/>
<path d="M790 1260 c6 -11 13 -20 16 -20 2 0 0 9 -6 20 -6 11 -13 20 -16 20
-2 0 0 -9 6 -20z"/>
<path d="M820 1210 c6 -11 13 -20 16 -20 2 0 0 9 -6 20 -6 11 -13 20 -16 20
-2 0 0 -9 6 -20z"/>
<path d="M2332 875 c6 -14 13 -24 14 -22 6 6 -9 47 -17 47 -5 0 -3 -11 3 -25z"/>
<path d="M2292 826 c-41 -29 -48 -36 -36 -36 5 0 25 13 44 30 42 35 38 38 -8
6z"/>
<path d="M2005 624 c-121 -84 -222 -159 -224 -165 -2 -8 1 -9 10 -4 24 15 74
50 79 56 3 3 23 18 45 32 22 14 85 58 140 97 55 38 117 82 139 96 l38 26 69
-22 c38 -13 69 -25 69 -29 0 -3 -84 -64 -188 -135 -103 -72 -189 -133 -192
-136 -3 -3 -28 -20 -56 -38 -27 -17 -60 -42 -72 -54 l-21 -23 89 -155 c50 -85
91 -159 93 -165 3 -5 7 -7 11 -4 6 5 -148 282 -175 314 -5 7 94 82 276 210
l285 198 -90 23 c-49 13 -93 25 -98 27 -4 3 -106 -64 -227 -149z"/>
<path d="M2522 564 c28 -29 87 -39 108 -18 6 6 -5 8 -31 6 -31 -3 -49 1 -72
18 l-32 23 27 -29z"/>
</g>
</svg>
